<mxfile host="65bd71144e">
    <diagram id="YEdYSTSDJGtlsXvju2-6" name="Page-1">
        <mxGraphModel dx="1838" dy="785" grid="1" gridSize="10" guides="1" tooltips="1" connect="1" arrows="1" fold="1" page="1" pageScale="1" pageWidth="850" pageHeight="1100" math="0" shadow="0">
            <root>
                <mxCell id="0"/>
                <mxCell id="1" parent="0"/>
                <mxCell id="12" style="edgeStyle=elbowEdgeStyle;html=1;exitX=0;exitY=0.5;exitDx=0;exitDy=0;entryX=0.5;entryY=0;entryDx=0;entryDy=0;jumpStyle=none;elbow=vertical;strokeColor=#9D7B85;strokeWidth=3;" edge="1" parent="1" source="2" target="3">
                    <mxGeometry relative="1" as="geometry">
                        <Array as="points">
                            <mxPoint x="210" y="170"/>
                            <mxPoint x="200" y="155"/>
                            <mxPoint x="175" y="170"/>
                            <mxPoint x="160" y="230"/>
                            <mxPoint x="150" y="290"/>
                            <mxPoint x="210" y="170"/>
                        </Array>
                    </mxGeometry>
                </mxCell>
                <mxCell id="13" value="Applied to" style="edgeLabel;html=1;align=center;verticalAlign=middle;resizable=0;points=[];fontColor=#9D7B85;fontSize=13;" vertex="1" connectable="0" parent="12">
                    <mxGeometry x="-0.0154" y="1" relative="1" as="geometry">
                        <mxPoint as="offset"/>
                    </mxGeometry>
                </mxCell>
                <mxCell id="21" style="edgeStyle=elbowEdgeStyle;jumpStyle=none;elbow=vertical;html=1;exitX=0.5;exitY=1;exitDx=0;exitDy=0;strokeColor=#9D7B85;strokeWidth=3;entryX=0;entryY=0.25;entryDx=0;entryDy=0;" edge="1" parent="1" source="2" target="6">
                    <mxGeometry relative="1" as="geometry">
                        <mxPoint x="270" y="200" as="sourcePoint"/>
                        <mxPoint x="310" y="260" as="targetPoint"/>
                        <Array as="points">
                            <mxPoint x="320" y="250"/>
                            <mxPoint x="255" y="265"/>
                            <mxPoint x="215" y="220"/>
                            <mxPoint x="275" y="265"/>
                        </Array>
                    </mxGeometry>
                </mxCell>
                <mxCell id="22" value="Applied to" style="edgeLabel;html=1;align=center;verticalAlign=middle;resizable=0;points=[];fontColor=#9D7B85;fontSize=13;" vertex="1" connectable="0" parent="21">
                    <mxGeometry x="0.3" y="4" relative="1" as="geometry">
                        <mxPoint x="-19" y="-24" as="offset"/>
                    </mxGeometry>
                </mxCell>
                <mxCell id="2" value="(CEP) Operator" style="rounded=1;whiteSpace=wrap;html=1;strokeColor=#445469;strokeWidth=3;fontSize=17;" parent="1" vertex="1">
                    <mxGeometry x="235" y="140" width="120" height="60" as="geometry"/>
                </mxCell>
                <mxCell id="19" style="edgeStyle=elbowEdgeStyle;jumpStyle=none;elbow=vertical;html=1;exitX=0.867;exitY=0.017;exitDx=0;exitDy=0;entryX=0;entryY=0.75;entryDx=0;entryDy=0;exitPerimeter=0;strokeColor=#9D7B85;strokeWidth=3;" edge="1" parent="1" source="3" target="6">
                    <mxGeometry relative="1" as="geometry">
                        <Array as="points">
                            <mxPoint x="310" y="284"/>
                            <mxPoint x="290" y="290"/>
                            <mxPoint x="260" y="300"/>
                        </Array>
                    </mxGeometry>
                </mxCell>
                <mxCell id="20" value="Composed of" style="edgeLabel;html=1;align=center;verticalAlign=middle;resizable=0;points=[];fontColor=#9D7B85;fontSize=13;" vertex="1" connectable="0" parent="19">
                    <mxGeometry x="-0.4971" y="-1" relative="1" as="geometry">
                        <mxPoint x="10" y="18" as="offset"/>
                    </mxGeometry>
                </mxCell>
                <mxCell id="40" style="edgeStyle=elbowEdgeStyle;jumpStyle=none;html=1;exitX=0.133;exitY=0.033;exitDx=0;exitDy=0;entryX=0.5;entryY=0;entryDx=0;entryDy=0;exitPerimeter=0;strokeColor=#9D7B85;strokeWidth=3;" edge="1" parent="1" source="3" target="8">
                    <mxGeometry relative="1" as="geometry">
                        <Array as="points">
                            <mxPoint x="330" y="120"/>
                            <mxPoint x="440" y="100"/>
                            <mxPoint x="160" y="90"/>
                            <mxPoint x="750" y="570"/>
                            <mxPoint x="610" y="600"/>
                            <mxPoint x="700" y="140"/>
                            <mxPoint x="440" y="100"/>
                            <mxPoint x="430" y="130"/>
                            <mxPoint x="70" y="400"/>
                            <mxPoint x="590" y="610"/>
                            <mxPoint x="710" y="400"/>
                            <mxPoint x="550" y="580"/>
                            <mxPoint x="730" y="310"/>
                        </Array>
                    </mxGeometry>
                </mxCell>
                <mxCell id="41" value="Linked" style="edgeLabel;html=1;align=center;verticalAlign=middle;resizable=0;points=[];fontColor=#9D7B85;fontSize=13;" vertex="1" connectable="0" parent="40">
                    <mxGeometry x="0.3932" y="-1" relative="1" as="geometry">
                        <mxPoint as="offset"/>
                    </mxGeometry>
                </mxCell>
                <mxCell id="50" style="edgeStyle=orthogonalEdgeStyle;jumpStyle=none;html=1;exitX=0.75;exitY=1;exitDx=0;exitDy=0;entryX=0;entryY=0.25;entryDx=0;entryDy=0;strokeColor=#9D7B85;strokeWidth=3;fontSize=13;fontColor=#9D7B85;elbow=vertical;" edge="1" parent="1" source="3" target="4">
                    <mxGeometry relative="1" as="geometry"/>
                </mxCell>
                <mxCell id="51" value="Generated" style="edgeLabel;html=1;align=center;verticalAlign=middle;resizable=0;points=[];fontSize=13;fontColor=#9D7B85;" vertex="1" connectable="0" parent="50">
                    <mxGeometry x="-0.6182" y="2" relative="1" as="geometry">
                        <mxPoint x="23" y="11" as="offset"/>
                    </mxGeometry>
                </mxCell>
                <mxCell id="3" value="(CEP) &lt;br&gt;Pattern" style="rounded=1;whiteSpace=wrap;html=1;strokeColor=#445469;strokeWidth=3;fontSize=17;" parent="1" vertex="1">
                    <mxGeometry x="115" y="339" width="120" height="60" as="geometry"/>
                </mxCell>
                <mxCell id="14" style="edgeStyle=elbowEdgeStyle;jumpStyle=none;elbow=vertical;html=1;exitX=0;exitY=0.75;exitDx=0;exitDy=0;entryX=0.25;entryY=1;entryDx=0;entryDy=0;strokeColor=#9D7B85;strokeWidth=3;" edge="1" parent="1" source="4" target="3">
                    <mxGeometry relative="1" as="geometry">
                        <Array as="points">
                            <mxPoint x="190" y="504"/>
                            <mxPoint x="230" y="535"/>
                            <mxPoint x="240" y="530"/>
                            <mxPoint x="150" y="520"/>
                            <mxPoint x="150" y="520"/>
                            <mxPoint x="180" y="520"/>
                        </Array>
                    </mxGeometry>
                </mxCell>
                <mxCell id="16" value="Derived from" style="edgeLabel;html=1;align=center;verticalAlign=middle;resizable=0;points=[];fontColor=#9D7B85;fontSize=13;" vertex="1" connectable="0" parent="14">
                    <mxGeometry x="0.44" y="2" relative="1" as="geometry">
                        <mxPoint x="3" y="-24" as="offset"/>
                    </mxGeometry>
                </mxCell>
                <mxCell id="36" style="edgeStyle=elbowEdgeStyle;jumpStyle=none;html=1;exitX=0.75;exitY=0;exitDx=0;exitDy=0;entryX=0;entryY=0.75;entryDx=0;entryDy=0;strokeColor=#9D7B85;strokeWidth=3;" edge="1" parent="1" source="4" target="5">
                    <mxGeometry relative="1" as="geometry">
                        <Array as="points">
                            <mxPoint x="330" y="450"/>
                        </Array>
                    </mxGeometry>
                </mxCell>
                <mxCell id="37" value="Part of" style="edgeLabel;html=1;align=center;verticalAlign=middle;resizable=0;points=[];fontColor=#9D7B85;fontSize=13;" vertex="1" connectable="0" parent="36">
                    <mxGeometry x="-0.28" y="-2" relative="1" as="geometry">
                        <mxPoint y="7" as="offset"/>
                    </mxGeometry>
                </mxCell>
                <mxCell id="4" value="(CEP) Complex Event" style="rounded=1;whiteSpace=wrap;html=1;strokeColor=#445469;strokeWidth=3;fontSize=17;" parent="1" vertex="1">
                    <mxGeometry x="240" y="459" width="120" height="60" as="geometry"/>
                </mxCell>
                <mxCell id="38" style="edgeStyle=elbowEdgeStyle;jumpStyle=none;html=1;exitX=0.5;exitY=1;exitDx=0;exitDy=0;entryX=1;entryY=0.25;entryDx=0;entryDy=0;strokeColor=#9D7B85;strokeWidth=3;" edge="1" parent="1" source="5" target="4">
                    <mxGeometry relative="1" as="geometry">
                        <Array as="points">
                            <mxPoint x="415" y="470"/>
                        </Array>
                    </mxGeometry>
                </mxCell>
                <mxCell id="39" value="Aggregate" style="edgeLabel;html=1;align=center;verticalAlign=middle;resizable=0;points=[];fontColor=#9D7B85;fontSize=13;" vertex="1" connectable="0" parent="38">
                    <mxGeometry x="-0.5231" y="-1" relative="1" as="geometry">
                        <mxPoint as="offset"/>
                    </mxGeometry>
                </mxCell>
                <mxCell id="5" value="(CEP) &lt;br&gt;Event Stream" style="rounded=1;whiteSpace=wrap;html=1;strokeColor=#445469;strokeWidth=3;fontSize=17;" parent="1" vertex="1">
                    <mxGeometry x="355" y="339" width="120" height="60" as="geometry"/>
                </mxCell>
                <mxCell id="23" style="edgeStyle=elbowEdgeStyle;jumpStyle=none;elbow=vertical;html=1;exitX=0.25;exitY=0;exitDx=0;exitDy=0;entryX=1;entryY=0.5;entryDx=0;entryDy=0;strokeColor=#9D7B85;strokeWidth=3;" edge="1" parent="1" source="6" target="2">
                    <mxGeometry relative="1" as="geometry">
                        <Array as="points">
                            <mxPoint x="370" y="170"/>
                        </Array>
                    </mxGeometry>
                </mxCell>
                <mxCell id="24" value="Trigger" style="edgeLabel;html=1;align=center;verticalAlign=middle;resizable=0;points=[];fontColor=#9D7B85;fontSize=13;" vertex="1" connectable="0" parent="23">
                    <mxGeometry x="-0.2182" relative="1" as="geometry">
                        <mxPoint y="20" as="offset"/>
                    </mxGeometry>
                </mxCell>
                <mxCell id="25" style="edgeStyle=elbowEdgeStyle;jumpStyle=none;elbow=vertical;html=1;exitX=0.75;exitY=0;exitDx=0;exitDy=0;entryX=0.5;entryY=1;entryDx=0;entryDy=0;strokeColor=#9D7B85;strokeWidth=3;" edge="1" parent="1" source="6" target="8">
                    <mxGeometry relative="1" as="geometry"/>
                </mxCell>
                <mxCell id="27" value="Attribute" style="edgeLabel;html=1;align=center;verticalAlign=middle;resizable=0;points=[];fontColor=#9D7B85;fontSize=13;" vertex="1" connectable="0" parent="25">
                    <mxGeometry x="-0.1394" y="2" relative="1" as="geometry">
                        <mxPoint as="offset"/>
                    </mxGeometry>
                </mxCell>
                <mxCell id="30" value="Attribute" style="edgeStyle=elbowEdgeStyle;jumpStyle=none;elbow=horizontal;html=1;exitX=1;exitY=0.25;exitDx=0;exitDy=0;entryX=0;entryY=0.25;entryDx=0;entryDy=0;strokeColor=#9D7B85;strokeWidth=3;fontColor=#9D7B85;fontSize=13;" edge="1" parent="1" source="6" target="9">
                    <mxGeometry relative="1" as="geometry"/>
                </mxCell>
                <mxCell id="31" style="edgeStyle=elbowEdgeStyle;jumpStyle=none;html=1;entryX=0.25;entryY=0;entryDx=0;entryDy=0;exitX=1;exitY=0.75;exitDx=0;exitDy=0;strokeColor=#9D7B85;strokeWidth=3;" edge="1" parent="1" source="6" target="10">
                    <mxGeometry relative="1" as="geometry">
                        <mxPoint x="490" y="310" as="sourcePoint"/>
                        <Array as="points">
                            <mxPoint x="580" y="390"/>
                        </Array>
                    </mxGeometry>
                </mxCell>
                <mxCell id="33" value="Attribute" style="edgeLabel;html=1;align=center;verticalAlign=middle;resizable=0;points=[];fontColor=#9D7B85;fontSize=13;" vertex="1" connectable="0" parent="31">
                    <mxGeometry x="0.7467" y="1" relative="1" as="geometry">
                        <mxPoint y="-113" as="offset"/>
                    </mxGeometry>
                </mxCell>
                <mxCell id="48" style="edgeStyle=orthogonalEdgeStyle;jumpStyle=none;html=1;exitX=0.5;exitY=1;exitDx=0;exitDy=0;entryX=0.5;entryY=0;entryDx=0;entryDy=0;strokeColor=#9D7B85;strokeWidth=3;fontSize=13;fontColor=#9D7B85;elbow=vertical;" edge="1" parent="1" source="6" target="5">
                    <mxGeometry relative="1" as="geometry"/>
                </mxCell>
                <mxCell id="49" value="Composed of" style="edgeLabel;html=1;align=center;verticalAlign=middle;resizable=0;points=[];fontSize=13;fontColor=#9D7B85;" vertex="1" connectable="0" parent="48">
                    <mxGeometry x="-0.25" relative="1" as="geometry">
                        <mxPoint as="offset"/>
                    </mxGeometry>
                </mxCell>
                <mxCell id="6" value="(PM &amp;amp; CEP) Event" style="rounded=1;whiteSpace=wrap;html=1;strokeColor=#445469;strokeWidth=3;fontSize=17;" parent="1" vertex="1">
                    <mxGeometry x="355" y="239" width="120" height="60" as="geometry"/>
                </mxCell>
                <mxCell id="8" value="(PM) &lt;br&gt;Activity" style="rounded=1;whiteSpace=wrap;html=1;strokeColor=#445469;strokeWidth=3;fontSize=17;" vertex="1" parent="1">
                    <mxGeometry x="600" y="140" width="120" height="60" as="geometry"/>
                </mxCell>
                <mxCell id="42" style="edgeStyle=elbowEdgeStyle;jumpStyle=none;html=1;exitX=0.75;exitY=1;exitDx=0;exitDy=0;entryX=0.75;entryY=1;entryDx=0;entryDy=0;strokeColor=#9D7B85;strokeWidth=3;" edge="1" parent="1" source="9" target="4">
                    <mxGeometry relative="1" as="geometry">
                        <Array as="points">
                            <mxPoint x="430" y="550"/>
                            <mxPoint x="590" y="580"/>
                            <mxPoint x="590" y="590"/>
                            <mxPoint x="520" y="610"/>
                            <mxPoint x="730" y="460"/>
                        </Array>
                    </mxGeometry>
                </mxCell>
                <mxCell id="43" value="has" style="edgeLabel;html=1;align=center;verticalAlign=middle;resizable=0;points=[];fontColor=#9D7B85;fontSize=13;" vertex="1" connectable="0" parent="42">
                    <mxGeometry x="0.3364" y="2" relative="1" as="geometry">
                        <mxPoint y="-3" as="offset"/>
                    </mxGeometry>
                </mxCell>
                <mxCell id="9" value="(PM)&lt;br&gt;Timestamp" style="rounded=1;whiteSpace=wrap;html=1;strokeColor=#445469;strokeWidth=3;fontSize=17;" vertex="1" parent="1">
                    <mxGeometry x="600" y="239" width="120" height="60" as="geometry"/>
                </mxCell>
                <mxCell id="34" style="edgeStyle=elbowEdgeStyle;jumpStyle=none;html=1;exitX=0;exitY=0.75;exitDx=0;exitDy=0;entryX=1;entryY=0.75;entryDx=0;entryDy=0;strokeColor=#9D7B85;strokeWidth=3;" edge="1" parent="1" source="10" target="4">
                    <mxGeometry relative="1" as="geometry"/>
                </mxCell>
                <mxCell id="35" value="be associated" style="edgeLabel;html=1;align=center;verticalAlign=middle;resizable=0;points=[];fontColor=#9D7B85;fontSize=13;" vertex="1" connectable="0" parent="34">
                    <mxGeometry x="0.1647" y="2" relative="1" as="geometry">
                        <mxPoint x="21" y="-3" as="offset"/>
                    </mxGeometry>
                </mxCell>
                <mxCell id="10" value="(PM) CaseID" style="rounded=1;whiteSpace=wrap;html=1;strokeColor=#445469;strokeWidth=3;fontSize=17;" vertex="1" parent="1">
                    <mxGeometry x="550" y="459" width="120" height="60" as="geometry"/>
                </mxCell>
            </root>
        </mxGraphModel>
    </diagram>
</mxfile>